<svg width="784" height="198" viewBox="0 0 784 198" fill="none" xmlns="http://www.w3.org/2000/svg">
<path d="M260.98 134.999H278.575V52.1992H260.98V134.999Z" fill="#55AE36"/>
<path d="M314.669 136.841C333.069 136.841 345.144 124.996 345.144 104.066C345.144 83.8258 333.414 71.1758 314.669 71.1758C296.269 71.1758 284.309 83.0208 284.309 104.066C284.309 124.421 295.924 136.841 314.669 136.841ZM314.669 122.581C306.734 122.581 302.364 116.026 302.364 104.066C302.364 91.9908 306.619 85.4358 314.669 85.4358C322.719 85.4358 327.089 92.1058 327.089 104.066C327.089 116.141 322.834 122.581 314.669 122.581Z" fill="#55AE36"/>
<path d="M373.769 135.116C380.439 135.116 385.959 132.356 389.869 126.951V137.301C389.869 145.926 385.614 148.801 379.289 148.801C373.194 148.801 368.479 145.811 367.789 140.291H350.194C352.379 155.356 363.764 162.256 379.519 162.256C395.734 162.256 407.464 153.631 407.464 137.071V73.1308H389.869V78.8808C386.074 73.8208 380.669 71.1758 373.769 71.1758C358.359 71.1758 348.354 82.6758 348.354 103.261C348.354 122.926 358.129 135.116 373.769 135.116ZM378.024 120.856C370.434 120.856 366.409 114.531 366.409 103.261C366.409 91.6458 370.434 85.4358 378.024 85.4358C385.729 85.4358 389.869 91.7608 389.869 103.146C389.869 114.646 385.844 120.856 378.024 120.856Z" fill="#55AE36"/>
<path d="M443.657 136.841C462.057 136.841 474.132 124.996 474.132 104.066C474.132 83.8258 462.402 71.1758 443.657 71.1758C425.257 71.1758 413.297 83.0208 413.297 104.066C413.297 124.421 424.912 136.841 443.657 136.841ZM443.657 122.581C435.722 122.581 431.352 116.026 431.352 104.066C431.352 91.9908 435.607 85.4358 443.657 85.4358C451.707 85.4358 456.077 92.1058 456.077 104.066C456.077 116.141 451.822 122.581 443.657 122.581Z" fill="#55AE36"/>
<path d="M479.988 66.9192H497.585V52.1992H479.988V66.9192ZM479.988 134.999H497.585V73.1292H479.988V134.999Z" fill="#55AE36"/>
<path d="M523.556 160.416V128.791C527.236 134.081 532.526 136.841 539.081 136.841C554.836 136.841 565.071 124.996 565.071 103.951C565.071 83.7108 555.066 71.1758 539.081 71.1758C532.641 71.1758 527.351 74.1658 523.556 79.5708V73.1308H505.961V160.416H523.556ZM535.401 85.4358C542.876 85.4358 547.016 91.9908 547.016 103.951C547.016 116.026 542.991 122.581 535.401 122.581C527.696 122.581 523.556 115.911 523.556 103.951C523.556 91.9908 527.581 85.4358 535.401 85.4358Z" fill="#55AE36"/>
<path d="M586.199 90.2658C586.199 86.9308 589.189 84.6308 593.789 84.6308C599.999 84.6308 603.679 87.2758 604.714 93.6008H622.194C620.469 77.9608 609.199 71.1758 594.364 71.1758C577.804 71.1758 569.409 80.8358 569.409 91.1858C569.409 116.026 606.899 105.331 606.899 117.291C606.899 121.086 603.794 123.501 597.584 123.501C591.029 123.501 586.314 120.396 585.509 114.646H567.914C570.214 129.941 581.484 136.841 597.124 136.841C613.224 136.841 624.494 128.446 624.494 116.256C624.494 91.7608 586.199 102.456 586.199 90.2658Z" fill="#55AE36"/>
<path d="M667.845 108.666C667.845 116.601 663.475 122.581 656.69 122.581C650.48 122.581 647.49 118.671 647.49 110.736V73.1309H629.895V114.301C629.895 129.711 638.52 136.841 650.25 136.841C657.725 136.841 663.82 133.621 667.845 126.721V135.001H685.44V73.1309H667.845V108.666Z" fill="#55AE36"/>
<path d="M693.939 135.001H711.535V99.4658C711.535 91.5308 715.559 85.4358 721.654 85.4358C727.289 85.4358 730.049 89.4608 730.049 97.2808V135.001H747.529V99.4658C747.529 91.5308 751.669 85.4358 757.764 85.4358C763.399 85.4358 766.044 89.4608 766.044 97.2808V135.001H783.639V93.7158C783.639 78.4208 775.129 71.1758 763.629 71.1758C755.924 71.1758 749.369 74.3958 745.114 81.4108C742.009 74.5108 735.799 71.1758 728.439 71.1758C721.309 71.1758 715.445 74.2808 711.535 80.9508V73.1308H693.939V135.001Z" fill="#55AE36"/>
<path d="M194.252 160.263C213.312 143.243 225 120.274 225 95C225 42.533 174.632 0 112.5 0C50.368 0 0 42.533 0 95C0 147.467 50.368 190 112.5 190C130.127 190 146.807 186.577 161.658 180.474C179.104 191.243 200.478 198.983 224.084 197.351C211.613 194.181 200.886 181.34 194.252 160.263Z" fill="#B6EFA2"/>
<path d="M195 95C195 133.66 158.064 165 112.5 165C66.9365 165 30 133.66 30 95C30 56.34 66.9365 25 112.5 25C158.064 25 195 56.34 195 95Z" fill="#88E169"/>
<path d="M165 95C165 119.853 141.495 140 112.5 140C83.505 140 60 119.853 60 95C60 70.147 83.505 50 112.5 50C141.495 50 165 70.147 165 95Z" fill="#55AE36"/>
</svg>
