<svg width="671" height="143" viewBox="0 0 671 143" fill="none" xmlns="http://www.w3.org/2000/svg">
<path d="M0.0390625 95.2485L47.8379 73.9746L75.35 89.9301L80.9081 142.276L47.0043 141.995L52.0064 105.605L46.1705 102.246L17.5467 124.641L0.0390625 95.2485Z" fill="#B4C0D3"/>
<path d="M78.4082 87.6896L120.65 118.76L137.323 88.8093L103.418 75.0931V68.375L137.323 54.3788L120.65 24.707L78.4082 55.7785V87.6896Z" fill="#00D3AB"/>
<path d="M75.35 53.2594L80.9081 0.914062L47.0043 1.47374L52.0064 37.8638L46.1705 41.2228L17.2688 18.829L0.0390625 47.9409L47.8379 69.215L75.35 53.2594Z" fill="#4876EF"/>
<path d="M250.432 65.3203V114.36H268.679V51.8633H242.105V65.3203H250.432Z" fill="#4876EE"/>
<path d="M249.865 43.0831C251.538 44.8314 254.085 45.7055 257.506 45.7055C260.929 45.7055 263.436 44.8314 265.032 43.0831C266.706 41.2577 267.541 38.9765 267.541 36.2403C267.541 33.4266 266.706 31.1457 265.032 29.3973C263.436 27.5729 260.929 26.6602 257.506 26.6602C254.085 26.6602 251.538 27.5729 249.865 29.3973C248.269 31.1457 247.471 33.4266 247.471 36.2403C247.471 38.9765 248.269 41.2577 249.865 43.0831Z" fill="#4876EE"/>
<path d="M186.911 112.994C192.08 115.35 198.429 116.529 205.955 116.529C213.026 116.529 219.107 115.426 224.203 113.222C229.297 111.017 233.212 107.937 235.949 103.983C238.763 99.9538 240.169 95.2782 240.169 89.9556C240.169 84.7859 238.84 80.4139 236.179 76.8401C233.592 73.191 229.983 70.3398 225.343 68.2876C220.705 66.1581 215.345 64.8276 209.263 64.2958L202.876 63.7256C199.075 63.4208 196.338 62.395 194.665 60.6459C192.992 58.8975 192.156 56.8442 192.156 54.4881C192.156 52.6625 192.613 50.9904 193.523 49.4698C194.437 47.8729 195.805 46.6186 197.63 45.7058C199.531 44.794 201.85 44.3375 204.587 44.3375C207.475 44.3375 209.871 44.8693 211.772 45.9344C212.19 46.1594 212.588 46.3999 212.961 46.6554L213.051 46.7187C213.19 46.8151 213.328 46.9152 213.462 47.0161C214.616 47.8987 215.536 48.9444 216.22 50.1538C217.207 51.8268 217.704 53.6892 217.704 55.7423H235.949C235.949 50.2678 234.694 45.5157 232.187 41.4864C229.678 37.381 226.066 34.2258 221.353 32.0202C216.713 29.7393 211.126 28.5986 204.587 28.5986C198.352 28.5986 192.954 29.6639 188.392 31.7924C183.831 33.8456 180.258 36.8107 177.673 40.6876C175.162 44.5653 173.907 49.1658 173.907 54.4881C173.907 61.8625 176.381 67.7925 181.322 72.2792C186.263 76.7648 192.879 79.3497 201.166 80.0338L207.439 80.604C212.531 81.0604 216.22 82.0871 218.501 83.6829C220.78 85.2037 221.922 87.2946 221.922 89.9556C221.922 91.1788 221.722 92.3257 221.321 93.3972C221.023 94.1923 220.616 94.9462 220.098 95.6587C218.88 97.2543 217.094 98.5089 214.737 99.4226C212.38 100.334 209.453 100.79 205.955 100.79C202.078 100.79 198.922 100.259 196.49 99.1927C194.056 98.053 192.233 96.5705 191.014 94.7462C189.874 92.9206 189.305 90.9446 189.305 88.8152H171.172C171.172 94.2136 172.502 99.0025 175.162 103.185C177.824 107.291 181.74 110.56 186.911 112.994Z" fill="#4876EE"/>
<path d="M309.393 115.16C303.082 115.16 297.988 114.399 294.112 112.879C290.233 111.281 287.383 108.659 285.557 105.01C283.809 101.284 282.935 96.2674 282.935 89.9559V65.208H273.469V51.8648H282.935V34.9863H299.927V51.8648H318.175V65.208H299.927V90.6408C299.927 93.6059 300.688 95.8869 302.208 97.4825C303.804 99.0027 306.047 99.7638 308.937 99.7638H318.175V115.16H309.393Z" fill="#4876EE"/>
<path fill-rule="evenodd" clip-rule="evenodd" d="M340.143 113.793C344.248 115.617 348.963 116.53 354.285 116.53C359.529 116.53 364.169 115.617 368.198 113.793C372.228 111.968 375.574 109.421 378.234 106.152C380.895 102.882 382.683 99.1557 383.593 94.9746H366.829C366.07 96.8744 364.625 98.4719 362.496 99.7642C360.367 101.057 357.628 101.703 354.285 101.703C352.212 101.703 350.361 101.458 348.729 100.968C347.488 100.595 346.374 100.081 345.389 99.4233C343.108 97.9011 341.435 95.7724 340.371 93.0362C340.075 92.2565 339.823 91.4411 339.61 90.5917C339.393 89.7314 339.218 88.836 339.086 87.9039H384.735V81.7453C384.735 76.0428 383.518 70.797 381.086 66.0074C378.652 61.1405 375.116 57.225 370.48 54.2601C365.917 51.2189 360.29 49.6982 353.599 49.6982C348.505 49.6982 343.942 50.611 339.913 52.4354C335.963 54.1838 332.655 56.5787 329.993 59.6199C327.333 62.6612 325.28 66.1212 323.833 69.999C322.465 73.7996 321.781 77.7912 321.781 81.9729V84.254C321.781 88.2841 322.465 92.2372 323.833 96.1153C325.28 99.9168 327.333 103.375 329.993 106.493C332.73 109.534 336.111 111.968 340.143 113.793ZM339.401 76.6268C339.451 76.3853 339.504 76.1476 339.563 75.9134C339.721 75.2688 339.904 74.6509 340.111 74.0603C340.228 73.7242 340.352 73.3965 340.486 73.0779C341.625 70.2642 343.298 68.1357 345.502 66.6914C346.327 66.1515 347.22 65.7126 348.179 65.3746C349.792 64.808 351.6 64.5242 353.599 64.5242C356.719 64.5242 359.301 65.2469 361.355 66.6914C363.483 68.0596 365.081 70.0742 366.145 72.7354C366.232 72.9502 366.313 73.1687 366.392 73.39C366.518 73.7427 366.635 74.1044 366.744 74.4755C366.904 75.0273 367.046 75.5984 367.17 76.1888C367.26 76.6242 367.338 77.0695 367.407 77.5258H339.225C339.278 77.221 339.337 76.9216 339.401 76.6268Z" fill="#4876EE"/>
<path d="M392.266 114.362V51.8652H406.75V67.606C406.946 66.6703 407.17 65.7723 407.421 64.9108C407.636 64.1855 407.866 63.4857 408.118 62.8136C409.715 58.5556 412.11 55.3629 415.303 53.2334C418.496 51.0288 422.41 49.9268 427.05 49.9268H427.847C432.562 49.9268 436.477 51.0288 439.595 53.2334C442.788 55.3629 445.184 58.5556 446.78 62.8136L446.906 63.135L447.013 63.4288C447.085 63.2212 447.16 63.0165 447.235 62.8136C448.908 58.5556 451.342 55.3629 454.535 53.2334C457.728 51.0288 461.645 49.9268 466.283 49.9268H467.081C471.793 49.9268 475.747 51.0288 478.94 53.2334C482.21 55.3629 484.682 58.5556 486.353 62.8136C488.026 67.0716 488.864 72.3937 488.864 78.7802V114.362H470.615V77.7536C470.615 74.3322 469.704 71.5573 467.878 69.4288C466.13 67.2993 463.621 66.235 460.352 66.235C457.082 66.235 454.497 67.3379 452.597 69.5426C450.696 71.6711 449.745 74.5222 449.745 78.0962V114.362H431.383V77.7536C431.383 74.3322 430.471 71.5573 428.646 69.4288C426.898 67.2993 424.426 66.235 421.235 66.235C417.887 66.235 415.265 67.3379 413.364 69.5426C411.464 71.6711 410.512 74.5222 410.512 78.0962V114.362H392.266Z" fill="#4876EE"/>
<path fill-rule="evenodd" clip-rule="evenodd" d="M537.605 102.319V114.36H552.088V76.0411C552.088 70.2624 550.948 65.5491 548.667 61.8991C546.385 58.1736 543.042 55.3988 538.632 53.5741C534.299 51.7496 528.937 50.8369 522.551 50.8369C521.167 50.8369 519.722 50.8516 518.215 50.8818C517.326 50.9002 516.412 50.9232 515.479 50.9507C512.97 51.027 510.536 51.1408 508.182 51.2932L506.381 51.4145C505.456 51.4787 504.587 51.542 503.77 51.6063C503.156 51.6541 502.573 51.7018 502.023 51.7496V67.1461C504.38 66.9935 507.002 66.8411 509.892 66.6896C510.7 66.6474 511.501 66.6078 512.296 66.5711C513.445 66.5178 514.577 66.472 515.698 66.4315C516.583 66.3995 517.461 66.3711 518.332 66.3471C521.067 66.2708 523.273 66.2332 524.946 66.2332C528.291 66.2332 530.723 67.0311 532.245 68.6281C533.766 70.225 534.525 72.6197 534.525 75.8133V76.0411H523.235C517.685 76.0411 512.782 76.7637 508.523 78.2082C504.265 79.5764 500.957 81.7435 498.602 84.7085C496.244 87.5983 495.066 91.3237 495.066 95.8855C495.066 100.068 496.016 103.679 497.917 106.719C499.817 109.684 502.44 111.966 505.785 113.561C509.208 115.159 513.162 115.958 517.646 115.958C521.98 115.958 525.629 115.159 528.596 113.561C531.637 111.966 533.994 109.684 535.666 106.719C535.96 106.22 536.235 105.702 536.491 105.163C536.853 104.402 537.175 103.6 537.46 102.761L537.605 102.319ZM534.525 91.2097V86.1914H523.12C519.927 86.1914 517.457 86.9894 515.709 88.5863C514.036 90.1069 513.198 92.1978 513.198 94.8589C513.198 96.1116 513.407 97.2494 513.824 98.2761C514.244 99.3047 514.871 100.218 515.709 101.017C517.457 102.539 519.927 103.298 523.12 103.298C523.729 103.298 524.316 103.268 524.883 103.208C525.347 103.161 525.797 103.091 526.232 103.003C527.069 102.831 527.858 102.588 528.596 102.272C530.269 101.513 531.637 100.258 532.699 98.5078C533.766 96.7596 534.374 94.3263 534.525 91.2097Z" fill="#4876EE"/>
<path d="M563.008 114.362V51.8654H577.492V72.4941C578.186 66.6053 579.936 61.8569 582.739 58.2519C586.54 53.4623 592.013 51.0674 599.162 51.0674H601.556V66.8053H596.994C591.977 66.8053 588.098 68.1736 585.361 70.9109C582.624 73.572 581.254 77.4498 581.254 82.5433V114.362H563.008Z" fill="#4876EE"/>
<path d="M624.698 85.1662H630.743L650.472 114.361H671L645.983 78.506L666.552 51.8647H647.394L624.698 81.5813V31.1084H606.451V114.361H624.698V85.1662Z" fill="#4876EE"/>
</svg>
