<svg width="588" height="107" viewBox="0 0 588 107" fill="none" xmlns="http://www.w3.org/2000/svg">
<path d="M188.419 95.5909C179.948 95.5909 172.46 93.9272 165.954 90.5999C159.448 87.1956 154.419 82.3923 150.864 76.1899C147.309 69.9873 145.531 62.688 145.531 54.292C145.531 45.8958 147.309 38.5966 150.864 32.3941C154.419 26.1158 159.448 21.3128 165.954 17.9846C172.46 14.5807 179.948 12.8787 188.419 12.8787C194.168 12.8787 199.236 13.484 203.623 14.6942C208.086 15.8288 212.17 17.6441 215.876 20.1403V36.5921C212.549 33.869 208.729 31.9024 204.418 30.6921C200.181 29.4062 195.341 28.7633 189.895 28.7633C184.827 28.7633 180.249 29.8223 176.165 31.9402C172.157 33.9824 168.98 36.9324 166.635 40.7901C164.29 44.6477 163.117 49.1483 163.117 54.292C163.117 59.5111 164.176 64.0874 166.294 68.0206C168.488 71.8784 171.551 74.8661 175.484 76.9841C179.417 79.102 183.956 80.1609 189.1 80.1609C193.79 80.1609 197.873 79.3289 201.353 77.6648V62.3476H188.532V49.6401H218.032V87.8768C210.543 93.0201 200.674 95.5909 188.419 95.5909Z" fill="#09B44C"/>
<path d="M222.016 39.4286H238.58V47.2574C240.775 44.61 243.838 42.6054 247.771 41.244C251.704 39.8068 256.168 39.0883 261.159 39.0883V52.1362C255.94 52.1362 251.326 52.9304 247.317 54.5189C243.384 56.1073 240.661 58.5278 239.148 61.7804V93.8904H222.016V39.4286Z" fill="#09B44C"/>
<path d="M294.084 95.5909C283.645 95.5909 275.437 93.0954 269.462 88.1027C263.487 83.0354 260.499 75.9629 260.499 66.886C260.499 57.8848 263.147 50.7747 268.441 45.5555C273.812 40.3362 281.451 37.7267 291.361 37.7267C297.865 37.7267 303.386 38.937 307.925 41.3574C312.463 43.7779 315.906 47.1439 318.251 51.4554C320.595 55.6912 321.767 60.4945 321.767 65.8649V72.7861H276.838C278.048 79.745 284.552 83.2244 296.352 83.2244C299.831 83.2244 303.425 82.9219 307.13 82.3167C310.838 81.7117 314.053 80.8795 316.776 79.8205V91.8468C314.128 92.9816 310.724 93.8904 306.563 94.57C302.404 95.2512 298.243 95.5909 294.084 95.5909ZM305.542 61.6669C305.316 58.0361 303.954 55.2375 301.458 53.2709C298.963 51.2284 295.52 50.2073 291.133 50.2073C286.822 50.2073 283.417 51.2284 280.922 53.2709C278.426 55.3131 277.064 58.1118 276.838 61.6669H305.542Z" fill="#09B44C"/>
<path d="M356.885 95.5909C346.447 95.5909 338.239 93.0954 332.264 88.1027C326.289 83.0354 323.3 75.9629 323.3 66.886C323.3 57.8848 325.948 50.7747 331.243 45.5555C336.613 40.3362 344.253 37.7267 354.161 37.7267C360.667 37.7267 366.189 38.937 370.728 41.3574C375.265 43.7779 378.706 47.1439 381.051 51.4554C383.396 55.6912 384.57 60.4945 384.57 65.8649V72.7861H339.639C340.849 79.745 347.354 83.2244 359.154 83.2244C362.634 83.2244 366.227 82.9219 369.933 82.3167C373.638 81.7117 376.854 80.8795 379.577 79.8205V91.8468C376.929 92.9816 373.526 93.8904 369.365 94.57C365.205 95.2512 361.045 95.5909 356.885 95.5909ZM368.345 61.6669C368.117 58.0361 366.756 55.2375 364.261 53.2709C361.763 51.2284 358.322 50.2073 353.935 50.2073C349.624 50.2073 346.22 51.2284 343.724 53.2709C341.227 55.3131 339.866 58.1118 339.639 61.6669H368.345Z" fill="#09B44C"/>
<path d="M388.373 39.4286H404.938V46.1228C407.435 43.3241 410.384 41.244 413.788 39.8825C417.268 38.4453 420.898 37.7267 424.681 37.7267C432.094 37.7267 437.615 39.7312 441.246 43.7401C444.951 47.6735 446.806 53.0061 446.806 59.7381V93.8904H429.672V61.6669C429.672 54.6323 426.42 51.1151 419.914 51.1151C417.04 51.1151 414.356 51.8337 411.859 53.2709C409.363 54.6323 407.246 56.6747 405.505 59.3977V93.8904H388.373V39.4286Z" fill="#09B44C"/>
<path d="M461.921 31.0325C459.275 31.0325 457.044 30.1627 455.228 28.4229C453.412 26.6832 452.505 24.4896 452.505 21.8422C452.505 19.2705 453.412 17.1148 455.228 15.3749C457.044 13.5596 459.275 12.652 461.921 12.652C464.569 12.652 466.8 13.5596 468.616 15.3749C470.432 17.1148 471.339 19.2705 471.339 21.8422C471.339 24.4896 470.432 26.6832 468.616 28.4229C466.8 30.1627 464.569 31.0325 461.921 31.0325ZM453.298 39.4286H470.546V93.8904H453.298V39.4286Z" fill="#09B44C"/>
<path d="M499.763 95.5909C495.68 95.5909 491.293 95.1374 486.603 94.2302C481.989 93.3984 478.358 92.1883 475.71 90.5999V77.211C478.737 79.0263 482.367 80.5014 486.603 81.636C490.839 82.7706 494.772 83.3378 498.403 83.3378C501.504 83.3378 503.774 83.0732 505.21 82.5436C506.647 82.0141 507.365 81.0308 507.365 79.5937C507.365 78.4591 506.95 77.5515 506.119 76.8706C505.287 76.1142 504 75.4712 502.261 74.9418C500.597 74.3366 497.797 73.4668 493.864 72.3321C489.251 70.9707 485.619 69.6092 482.973 68.2476C480.4 66.8104 478.434 65.0329 477.073 62.915C475.786 60.7971 475.143 58.0739 475.143 54.7457C475.143 49.0727 477.374 44.8369 481.838 42.0382C486.375 39.1638 492.503 37.7267 500.219 37.7267C504 37.7267 507.896 38.1427 511.905 38.9748C515.988 39.7312 519.128 40.7523 521.323 42.0382V55.0862C519.128 53.649 516.255 52.4765 512.698 51.5689C509.22 50.6612 505.816 50.2073 502.487 50.2073C499.385 50.2073 496.965 50.5099 495.226 51.1151C493.562 51.7202 492.729 52.8548 492.729 54.519C492.729 55.956 493.524 57.0528 495.112 57.8093C496.776 58.5657 499.84 59.5112 504.303 60.6458L506.572 61.213C511.337 62.4989 515.043 63.9361 517.691 65.5246C520.338 67.0374 522.191 68.8905 523.251 71.0841C524.385 73.202 524.953 75.8873 524.953 79.1398C524.953 84.1327 522.797 88.1412 518.486 91.1673C514.174 94.1164 507.933 95.5909 499.763 95.5909Z" fill="#09B44C"/>
<path d="M528.913 10.0423H546.045V45.669C548.617 43.0215 551.53 41.0549 554.782 39.769C558.034 38.4074 561.513 37.7267 565.221 37.7267C572.634 37.7267 578.155 39.7312 581.786 43.74C585.491 47.6734 587.346 53.0061 587.346 59.7381V93.8904H570.213V61.6669C570.213 54.6323 566.96 51.1151 560.456 51.1151C557.58 51.1151 554.896 51.8336 552.4 53.2709C549.903 54.6323 547.786 56.6747 546.045 59.3977V93.8904H528.913V10.0423Z" fill="#09B44C"/>
<path fill-rule="evenodd" clip-rule="evenodd" d="M87.0202 26.0959C87.0202 40.5083 75.3375 52.1918 60.9251 52.1918C46.5126 52.1918 34.8291 40.5083 34.8291 26.0959C34.8291 11.6835 46.5126 0 60.9251 0C75.3375 0 87.0202 11.6835 87.0202 26.0959ZM0.223816 50.2953C28.6547 48.3789 53.4331 69.6651 55.7411 98.1567C55.9803 101.109 55.9688 104.023 55.7246 106.88C27.2937 108.797 2.5153 87.5102 0.207248 59.0189C-0.031759 56.0666 -0.0203791 53.1517 0.223816 50.2953ZM74.1199 105.883C102.611 103.575 123.897 78.796 121.981 50.3651C119.124 50.1209 116.21 50.1095 113.257 50.3487C84.7657 52.6566 63.4799 77.435 65.3963 105.866C68.2527 106.11 71.1674 106.122 74.1199 105.883Z" fill="#09B44C"/>
</svg>
