<svg width="315" height="82" viewBox="0 0 315 82" fill="none" xmlns="http://www.w3.org/2000/svg">
<path d="M113.1 28.5475C115.443 30.8907 115.443 34.6897 113.1 37.0328L70.529 79.604C68.186 81.947 64.387 81.947 62.044 79.604L35.2535 52.814C32.9103 50.471 32.9103 46.6718 35.2535 44.3286L77.825 1.7574C80.168 -0.5858 83.967 -0.5858 86.31 1.7574L113.1 28.5475Z" fill="#4A6DFF"/>
<path d="M80.432 28.5475C82.775 30.8907 82.775 34.6897 80.432 37.0328L37.8609 79.604C35.5178 81.947 31.7188 81.947 29.3756 79.604L2.58553 52.814C0.242325 50.471 0.242325 46.6718 2.58553 44.3286L45.1568 1.7574C47.4999 -0.5858 51.299 -0.5858 53.642 1.7574L80.432 28.5475Z" fill="#2EB9FF"/>
<path d="M160.077 43.6774C162.338 44.099 164.197 45.2298 165.654 47.0696C167.11 48.9095 167.839 51.0172 167.839 53.3942C167.839 55.5402 167.302 57.4382 166.229 59.0862C165.194 60.6962 163.68 61.9612 161.687 62.8812C159.694 63.8012 157.336 64.2612 154.615 64.2612H137.309V24.1289H153.867C156.589 24.1289 158.927 24.5697 160.882 25.4513C162.875 26.3329 164.37 27.5595 165.366 29.131C166.401 30.7025 166.919 32.4849 166.919 34.4781C166.919 36.8162 166.286 38.7711 165.021 40.3426C163.795 41.9142 162.147 43.0258 160.077 43.6774ZM145.358 40.6876H152.717C154.634 40.6876 156.11 40.266 157.145 39.4227C158.179 38.5411 158.697 37.2954 158.697 35.6855C158.697 34.0756 158.179 32.8299 157.145 31.9483C156.11 31.0667 154.634 30.6259 152.717 30.6259H145.358V40.6876ZM153.465 57.7062C155.42 57.7062 156.934 57.2462 158.007 56.3262C159.119 55.4062 159.674 54.1032 159.674 52.4172C159.674 50.6922 159.099 49.3503 157.949 48.392C156.8 47.3954 155.247 46.8971 153.292 46.8971H145.358V57.7062H153.465Z" fill="#242426"/>
<path d="M186.097 64.778C183.031 64.778 180.271 64.107 177.818 62.766C175.365 61.386 173.429 59.45 172.011 56.959C170.631 54.467 169.941 51.592 169.941 48.3343C169.941 45.0762 170.65 42.2015 172.068 39.71C173.525 37.2185 175.499 35.302 177.99 33.9604C180.482 32.5805 183.261 31.8906 186.327 31.8906C189.393 31.8906 192.172 32.5805 194.664 33.9604C197.155 35.302 199.11 37.2185 200.528 39.71C201.985 42.2015 202.713 45.0762 202.713 48.3343C202.713 51.592 201.966 54.467 200.471 56.959C199.014 59.45 197.021 61.386 194.491 62.766C192 64.107 189.202 64.778 186.097 64.778ZM186.097 57.764C187.554 57.764 188.914 57.419 190.179 56.729C191.482 56 192.517 54.927 193.284 53.509C194.051 52.091 194.434 50.366 194.434 48.3343C194.434 45.3062 193.629 42.9872 192.019 41.3774C190.448 39.7292 188.512 38.905 186.212 38.905C183.912 38.905 181.977 39.7292 180.405 41.3774C178.872 42.9872 178.105 45.3062 178.105 48.3343C178.105 51.362 178.853 53.701 180.348 55.349C181.881 56.959 183.797 57.764 186.097 57.764Z" fill="#242426"/>
<path d="M214.369 37.3538C215.404 35.6672 216.746 34.3448 218.394 33.3866C220.081 32.4283 221.997 31.9492 224.144 31.9492V40.401H222.016C219.486 40.401 217.57 40.9952 216.267 42.1834C215.002 43.3716 214.369 45.4415 214.369 48.3929V64.2621H206.32V32.4091H214.369V37.3538Z" fill="#242426"/>
<path d="M225.195 48.2202C225.195 45.0005 225.827 42.1449 227.092 39.6534C228.395 37.1619 230.158 35.2454 232.382 33.9038C234.605 32.5623 237.077 31.8915 239.798 31.8915C241.868 31.8915 243.842 32.3514 245.721 33.2714C247.599 34.153 249.094 35.3412 250.205 36.8361V21.7148H258.37V64.2619H250.205V59.5469C249.209 61.1189 247.81 62.3829 246.008 63.3419C244.206 64.2999 242.117 64.7789 239.741 64.7789C237.058 64.7789 234.605 64.0889 232.382 62.7089C230.158 61.3289 228.395 59.3939 227.092 56.9019C225.827 54.3719 225.195 51.4779 225.195 48.2202ZM250.263 48.3352C250.263 46.3804 249.879 44.713 249.113 43.3331C248.346 41.9149 247.311 40.8416 246.008 40.1134C244.705 39.3467 243.306 38.9634 241.811 38.9634C240.316 38.9634 238.936 39.3276 237.671 40.0559C236.406 40.7841 235.371 41.8574 234.566 43.2756C233.8 44.6555 233.416 46.3037 233.416 48.2202C233.416 50.1369 233.8 51.8229 234.566 53.2799C235.371 54.6979 236.406 55.7909 237.671 56.5569C238.974 57.3239 240.354 57.7069 241.811 57.7069C243.306 57.7069 244.705 57.3429 246.008 56.6149C247.311 55.8479 248.346 54.7749 249.113 53.3949C249.879 51.9769 250.263 50.2899 250.263 48.3352Z" fill="#242426"/>
<path d="M293.543 47.6444C293.543 48.7943 293.466 49.8292 293.313 50.749H270.027C270.219 53.049 271.023 54.85 272.442 56.154C273.86 57.457 275.604 58.109 277.674 58.109C280.664 58.109 282.791 56.825 284.056 54.256H292.738C291.818 57.323 290.055 59.853 287.448 61.846C284.842 63.801 281.641 64.778 277.846 64.778C274.78 64.778 272.02 64.107 269.567 62.766C267.152 61.386 265.255 59.45 263.875 56.959C262.533 54.467 261.863 51.592 261.863 48.3343C261.863 45.0379 262.533 42.144 263.875 39.6525C265.216 37.161 267.095 35.2445 269.509 33.9029C271.924 32.5614 274.703 31.8906 277.846 31.8906C280.874 31.8906 283.577 32.5422 285.953 33.8454C288.368 35.1487 290.227 37.0077 291.53 39.4225C292.872 41.799 293.543 44.5396 293.543 47.6444ZM285.206 45.3446C285.167 43.2747 284.42 41.6265 282.963 40.3999C281.507 39.135 279.724 38.5026 277.616 38.5026C275.623 38.5026 273.937 39.1159 272.557 40.3424C271.215 41.5307 270.391 43.198 270.084 45.3446H285.206Z" fill="#242426"/>
<path d="M305.166 37.3538C306.201 35.6672 307.543 34.3448 309.191 33.3866C310.878 32.4283 312.794 31.9492 314.941 31.9492V40.401H312.813C310.284 40.401 308.367 40.9952 307.064 42.1834C305.799 43.3716 305.166 45.4415 305.166 48.3929V64.2621H297.117V32.4091H305.166V37.3538Z" fill="#242426"/>
</svg>
