<svg width="85" height="99" viewBox="0 0 85 99" fill="none" xmlns="http://www.w3.org/2000/svg">
<path d="M24.1008 95.3008L25.8008 84.4008L22.0008 84.3008H3.80078L16.4008 4.20078C16.5008 3.70078 16.9008 3.30078 17.4008 3.30078H48.1008C58.3008 3.30078 65.3008 5.40078 69.0008 9.60078C70.7008 11.6008 71.8008 13.6008 72.3008 15.9008C72.9008 18.3008 72.9008 21.1008 72.3008 24.5008V24.8008V27.0008L74.0008 28.0008C75.3008 28.7008 76.5008 29.6008 77.5008 30.7008C79.0008 32.4008 79.9008 34.5008 80.3008 37.0008C80.7008 39.6008 80.6008 42.7008 79.9008 46.2008C79.1008 50.2008 77.8008 53.7008 76.1008 56.6008C74.6008 59.2008 72.6008 61.4008 70.1008 63.1008C67.8008 64.7008 65.1008 65.9008 62.1008 66.7008C59.1008 67.5008 55.8008 67.9008 52.1008 67.9008H49.7008C48.0008 67.9008 46.3008 68.5008 45.0008 69.6008C43.7008 70.7008 42.8008 72.3008 42.6008 73.9008L42.4008 74.9008L39.4008 94.0008L39.3008 94.7008C39.3008 94.9008 39.2008 95.0008 39.1008 95.1008C39.0008 95.2008 38.9008 95.2008 38.8008 95.2008L24.1008 95.3008Z" fill="#253B80"/>
<path d="M75.6982 25.1016C75.5982 25.7016 75.4982 26.3016 75.3982 26.9016C71.3982 47.7016 57.4982 54.8016 39.7982 54.8016H30.7982C28.5982 54.8016 26.7982 56.4016 26.4982 58.5016L21.8982 87.7016L20.5982 96.0016C20.3982 97.3016 21.2982 98.4016 22.4982 98.6016C22.5982 98.6016 22.6982 98.6016 22.8982 98.6016H38.8982C40.7982 98.6016 42.3982 97.2016 42.6982 95.4016L42.8982 94.6016L45.8982 75.5016L46.0982 74.5016C46.3982 72.6016 47.9982 71.3016 49.8982 71.3016H52.2982C67.7982 71.3016 79.8982 65.0016 83.3982 46.9016C84.8982 39.3016 84.0982 33.0016 80.1982 28.5016C78.7982 27.1016 77.3982 25.9016 75.6982 25.1016Z" fill="#179BD7"/>
<path d="M71.4992 23.3984C70.1992 22.9984 68.8992 22.6984 67.5992 22.4984C64.9992 22.0984 62.2992 21.8984 59.6992 21.8984H35.6992C33.7992 21.8984 32.1992 23.2984 31.8992 25.0984L26.7992 57.4984L26.6992 58.3984C26.9992 56.2984 28.8992 54.6984 30.9992 54.6984H39.9992C57.6992 54.6984 71.4992 47.4984 75.5992 26.7984C75.6992 26.1984 75.7992 25.5984 75.8992 24.9984C74.7992 24.3984 73.6992 23.9984 72.5992 23.5984C72.0992 23.5984 71.7992 23.4984 71.4992 23.3984Z" fill="#222D65"/>
<path d="M31.8005 25.2C32.1005 23.3 33.7005 22 35.6005 22H59.6005C62.4005 22 65.1005 22.2 67.5005 22.6C69.1005 22.9 70.8005 23.2 72.3005 23.8C73.5005 24.2 74.6005 24.7 75.6005 25.2C76.8005 17.5 75.6005 12.3 71.4005 7.6C67.0005 2.2 58.7005 0 48.2005 0H17.5005C15.3005 0 13.5005 1.6 13.2005 3.7L0.400483 84.7C0.200483 86.1 1.20048 87.5 2.60048 87.7C2.70048 87.7 2.90048 87.7 3.00048 87.7H21.9005L26.7005 57.5L31.8005 25.2Z" fill="#253B80"/>
</svg>